<svg width="30" height="31" viewBox="0 0 30 31" fill="none" xmlns="http://www.w3.org/2000/svg">
<g clip-path="url(#clip0_532_119)">
<path d="M27.7052 9.09873C27.5559 8.54377 27.2633 8.03777 26.857 7.63139C26.4506 7.225 25.9446 6.93248 25.3896 6.78311C23.3459 6.22998 15.1334 6.22998 15.1334 6.22998C15.1334 6.22998 6.92087 6.22998 4.87712 6.78311C4.32215 6.93248 3.81616 7.225 3.40977 7.63139C3.00339 8.03777 2.71087 8.54377 2.56149 9.09873C2.17988 11.183 1.99469 13.2986 2.00837 15.4175C1.99469 17.5364 2.17988 19.6519 2.56149 21.7362C2.71087 22.2912 3.00339 22.7972 3.40977 23.2036C3.81616 23.61 4.32215 23.9025 4.87712 24.0519C6.92087 24.605 15.1334 24.605 15.1334 24.605C15.1334 24.605 23.3459 24.605 25.3896 24.0519C25.9446 23.9025 26.4506 23.61 26.857 23.2036C27.2633 22.7972 27.5559 22.2912 27.7052 21.7362C28.0869 19.6519 28.272 17.5364 28.2584 15.4175C28.272 13.2986 28.0869 11.183 27.7052 9.09873ZM12.5084 19.355V11.48L19.324 15.4175L12.5084 19.355Z" fill="white"/>
</g>
<defs>
<clipPath id="clip0_532_119">
<rect width="30" height="30" fill="white" transform="translate(0 0.5)"/>
</clipPath>
</defs>
</svg>
