<svg width="144" height="75" viewBox="0 0 144 75" fill="none" xmlns="http://www.w3.org/2000/svg">
<path d="M66.9211 9.37399V22.2555H73.8419H81.5363V27.7673H73.8419H66.9211V40.9059H83.2625L81.1994 42.0646L78.4351 43.6904L75.0668 44.4522H72L67.1053 44.3028L61.685 42.0646V7.9354L65.8804 6.33248L69.2488 5.54775H72H74.4544L77.5165 6.31084L79.9662 6.9449L82.7221 8.47597L83.3421 9.37399H66.9211Z" fill="#C3C2D2"/>
<path d="M72 50C67.4588 50 63.3155 48.9466 59.5702 46.8399C55.8249 44.6863 52.852 41.7135 50.6517 37.9213C48.4981 34.0824 47.4213 29.7753 47.4213 25C47.4213 20.2247 48.4981 15.941 50.6517 12.1489C52.852 8.30993 55.8249 5.33708 59.5702 3.23034C63.3155 1.07678 67.4588 0 72 0C76.588 0 80.7547 1.07678 84.5 3.23034C88.2453 5.33708 91.1947 8.28652 93.3483 12.0786C95.5018 15.8708 96.5786 20.1779 96.5786 25C96.5786 29.8221 95.5018 34.1292 93.3483 37.9213C91.1947 41.7135 88.2453 44.6863 84.5 46.8399C80.7547 48.9466 76.588 50 72 50ZM72 44.4522C75.4176 44.4522 78.4841 43.6564 81.1994 42.0646C83.9616 40.4728 86.1151 38.2022 87.6601 35.2528C89.2519 32.3034 90.0477 28.8858 90.0477 25C90.0477 21.0674 89.2519 17.6498 87.6601 14.7472C86.1151 11.7978 83.985 9.52715 81.2696 7.9354C78.5543 6.34363 75.4644 5.54775 72 5.54775C68.5356 5.54775 65.4457 6.34363 62.7303 7.9354C60.015 9.52715 57.8614 11.7978 56.2696 14.7472C54.7247 17.6498 53.9522 21.0674 53.9522 25C53.9522 28.8858 54.7247 32.3034 56.2696 35.2528C57.8614 38.2022 60.015 40.4728 62.7303 42.0646C65.4925 43.6564 68.5824 44.4522 72 44.4522Z" fill="#C3C2D2"/>
<path d="M7.94508 71H1.01508V69.67H2.06508V63.23H1.01508V61.9H7.84708L8.12708 64.532L6.79708 64.644L6.51708 63.23H3.61908V65.75H7.62308V67.08H3.61908V69.67H6.61508L6.89508 68.256L8.22508 68.368L7.94508 71ZM16.0206 71H9.28656V69.67H10.3366V63.23H9.28656V61.9H13.2486V63.23H11.8906V69.67H14.6906L14.9706 67.78L16.3006 67.892L16.0206 71ZM20.6648 71H17.0248V69.67H18.0748V63.23H17.0248V61.9H20.6648V63.23H19.6288V69.67H20.6648V71ZM28.4043 68.326C28.4043 69.2313 28.087 69.9267 27.4523 70.412C26.827 70.8973 25.9963 71.14 24.9603 71.14C24.3443 71.14 23.747 71.0653 23.1683 70.916C22.599 70.7667 22.1463 70.552 21.8103 70.272L22.0623 68.186L23.3083 68.312L23.2803 69.432C23.5883 69.5907 23.8683 69.6933 24.1203 69.74C24.3817 69.7773 24.6243 69.796 24.8483 69.796C25.3897 69.796 25.8377 69.712 26.1923 69.544C26.5563 69.3667 26.7383 69.0167 26.7383 68.494C26.7383 67.9247 26.533 67.5467 26.1223 67.36C25.7117 67.164 25.2403 67.0147 24.7083 66.912C24.279 66.828 23.845 66.716 23.4063 66.576C22.9677 66.436 22.6037 66.2027 22.3143 65.876C22.025 65.5493 21.8803 65.0687 21.8803 64.434C21.8803 63.482 22.2023 62.8007 22.8463 62.39C23.4997 61.97 24.2277 61.76 25.0303 61.76C25.5903 61.76 26.1317 61.844 26.6543 62.012C27.1863 62.18 27.6017 62.3993 27.9003 62.67L27.9843 64.588L26.7383 64.7L26.6123 63.524C26.351 63.3747 26.0897 63.272 25.8283 63.216C25.567 63.16 25.315 63.132 25.0723 63.132C24.6337 63.132 24.2697 63.2207 23.9803 63.398C23.691 63.5753 23.5463 63.86 23.5463 64.252C23.5463 64.7093 23.7237 65.022 24.0783 65.19C24.4423 65.3487 24.8483 65.4793 25.2963 65.582C25.679 65.666 26.113 65.778 26.5983 65.918C27.0837 66.058 27.5037 66.31 27.8583 66.674C28.2223 67.0287 28.4043 67.5793 28.4043 68.326ZM38.9583 71H35.3183V69.67H36.3683V67.038H32.0703V69.67H33.1063V71H29.4663V69.67H30.5163V63.23H29.4663V61.9H33.1063V63.23H32.0703V65.722H36.3683V63.23H35.3183V61.9H38.9583V63.23H37.9223V69.67H38.9583V71ZM48.9793 71H45.4933V69.67H46.4173L45.9553 68.424H42.5533L42.0633 69.67H43.0853V71H39.6413V69.67H40.4813L43.2253 63.23H41.8953V61.9H44.8213L48.0973 69.67H48.9793V71ZM45.5353 67.29L44.3453 64.126H44.2613L43.0013 67.29H45.5353ZM60.9605 66.436C60.9605 67.724 60.5451 68.83 59.7145 69.754C58.8838 70.678 57.7498 71.14 56.3125 71.14C54.8658 71.14 53.7411 70.678 52.9385 69.754C52.1358 68.83 51.7345 67.7333 51.7345 66.464C51.7345 65.1387 52.1545 64.0233 52.9945 63.118C53.8345 62.2127 54.9545 61.76 56.3545 61.76C57.7731 61.76 58.8931 62.222 59.7145 63.146C60.5451 64.0607 60.9605 65.1573 60.9605 66.436ZM59.2805 66.478C59.2805 65.4607 59.0191 64.6487 58.4965 64.042C57.9831 63.4353 57.2645 63.132 56.3405 63.132C55.3698 63.132 54.6371 63.4493 54.1425 64.084C53.6571 64.7093 53.4145 65.4887 53.4145 66.422C53.4145 67.3273 53.6525 68.1113 54.1285 68.774C54.6138 69.4367 55.3651 69.768 56.3825 69.768C57.3438 69.768 58.0671 69.46 58.5525 68.844C59.0378 68.2187 59.2805 67.43 59.2805 66.478ZM70.5792 66.422C70.5792 67.7847 70.1732 68.8907 69.3612 69.74C68.5492 70.58 67.4246 71 65.9872 71H61.7592V69.67H62.8092V63.23H61.7592V61.9H65.9032C67.4339 61.9 68.5959 62.32 69.3892 63.16C70.1826 64 70.5792 65.0873 70.5792 66.422ZM68.9132 66.436C68.9132 64.2987 67.8959 63.23 65.8612 63.23H64.3632V69.67H65.8612C67.8959 69.67 68.9132 68.592 68.9132 66.436ZM78.3552 71H71.4252V69.67H72.4752V63.23H71.4252V61.9H78.2572L78.5372 64.532L77.2072 64.644L76.9272 63.23H74.0292V65.75H78.0332V67.08H74.0292V69.67H77.0252L77.3052 68.256L78.6352 68.368L78.3552 71ZM91.1627 63.23H90.0147V69.67H91.0507V71H87.5647V69.67H88.4607V65.316H88.4047L85.7587 70.356H85.0587L82.2727 65.19H82.2167V69.67H83.1687V71H79.7247V69.67H80.7607V63.23H79.6127V61.9H82.0767L85.4367 68.102H85.4927L88.6847 61.9H91.1627V63.23ZM101.083 71H97.5968V69.67H98.5208L98.0588 68.424H94.6568L94.1668 69.67H95.1888V71H91.7448V69.67H92.5848L95.3288 63.23H93.9988V61.9H96.9248L100.201 69.67H101.083V71ZM97.6388 67.29L96.4488 64.126H96.3648L95.1048 67.29H97.6388ZM110.195 71H106.485V69.67H107.423L105.463 67.024H104.203V69.67H105.071V71H101.599V69.67H102.649V63.23H101.599V61.9H105.113V63.23H104.203V65.75H105.477L107.367 63.23H106.471V61.9H110.027V63.23H109.005L106.667 66.24L109.215 69.67H110.195V71ZM114.509 71H110.869V69.67H111.919V63.23H110.869V61.9H114.509V63.23H113.473V69.67H114.509V71ZM125.188 63.23H124.138V71L123.242 71.014L118.202 64.7H118.146V69.67H119.476V71H115.682V69.67H116.69V63.23H115.542V61.9H117.824L122.626 67.92H122.682V63.23H121.352V61.9H125.188V63.23ZM134.987 66.422C134.987 67.7847 134.581 68.8907 133.769 69.74C132.957 70.58 131.833 71 130.395 71H126.167V69.67H127.217V63.23H126.167V61.9H130.311C131.842 61.9 133.004 62.32 133.797 63.16C134.591 64 134.987 65.0873 134.987 66.422ZM133.321 66.436C133.321 64.2987 132.304 63.23 130.269 63.23H128.771V69.67H130.269C132.304 69.67 133.321 68.592 133.321 66.436ZM142.763 71H135.833V69.67H136.883V63.23H135.833V61.9H142.665L142.945 64.532L141.615 64.644L141.335 63.23H138.437V65.75H142.441V67.08H138.437V69.67H141.433L141.713 68.256L143.043 68.368L142.763 71Z" fill="#EEEEEE"/>
</svg>
