<svg width="30" height="31" viewBox="0 0 30 31" fill="none" xmlns="http://www.w3.org/2000/svg">
<path d="M13.625 3.12509C7.87498 3.75009 3.24998 8.37509 2.62498 14.0001C1.99998 19.8751 5.37498 25.1251 10.5 27.1251C10.875 27.2501 11.25 27.0001 11.25 26.5001V24.5001C11.25 24.5001 10.75 24.6251 10.125 24.6251C8.37498 24.6251 7.62498 23.1251 7.49998 22.2501C7.37498 21.7501 7.12498 21.3751 6.74998 21.0001C6.37498 20.8751 6.24998 20.8751 6.24998 20.7501C6.24998 20.5001 6.62498 20.5001 6.74998 20.5001C7.49998 20.5001 8.12498 21.3751 8.37498 21.7501C8.99998 22.7501 9.74998 23.0001 10.125 23.0001C10.625 23.0001 11 22.8751 11.25 22.7501C11.375 21.8751 11.75 21.0001 12.5 20.5001C9.62498 19.8751 7.49998 18.2501 7.49998 15.5001C7.49998 14.1251 8.12498 12.7501 8.99998 11.7501C8.87498 11.5001 8.74998 10.8751 8.74998 10.0001C8.74998 9.50009 8.74998 8.75009 9.12498 8.00009C9.12498 8.00009 10.875 8.00009 12.625 9.62509C13.25 9.37509 14.125 9.25009 15 9.25009C15.875 9.25009 16.75 9.37509 17.5 9.62509C19.125 8.00009 21 8.00009 21 8.00009C21.25 8.75009 21.25 9.50009 21.25 10.0001C21.25 11.0001 21.125 11.5001 21 11.7501C21.875 12.7501 22.5 14.0001 22.5 15.5001C22.5 18.2501 20.375 19.8751 17.5 20.5001C18.25 21.1251 18.75 22.2501 18.75 23.3751V26.6251C18.75 27.0001 19.125 27.3751 19.625 27.2501C24.25 25.3751 27.5 20.8751 27.5 15.6251C27.5 8.12509 21.125 2.25009 13.625 3.12509Z" fill="white"/>
</svg>
