<svg width="30" height="31" viewBox="0 0 30 31" fill="none" xmlns="http://www.w3.org/2000/svg">
<path d="M9.99997 4.25C6.55372 4.25 3.74997 7.05375 3.74997 10.5V20.5C3.74997 23.9462 6.55372 26.75 9.99997 26.75H20C23.4462 26.75 26.25 23.9462 26.25 20.5V10.5C26.25 7.05375 23.4462 4.25 20 4.25H9.99997ZM9.99997 6.75H20C22.0675 6.75 23.75 8.4325 23.75 10.5V20.5C23.75 22.5675 22.0675 24.25 20 24.25H9.99997C7.93247 24.25 6.24997 22.5675 6.24997 20.5V10.5C6.24997 8.4325 7.93247 6.75 9.99997 6.75ZM21.25 8C20.9184 8 20.6005 8.1317 20.3661 8.36612C20.1317 8.60054 20 8.91848 20 9.25C20 9.58152 20.1317 9.89946 20.3661 10.1339C20.6005 10.3683 20.9184 10.5 21.25 10.5C21.5815 10.5 21.8994 10.3683 22.1339 10.1339C22.3683 9.89946 22.5 9.58152 22.5 9.25C22.5 8.91848 22.3683 8.60054 22.1339 8.36612C21.8994 8.1317 21.5815 8 21.25 8ZM15 9.25C11.5537 9.25 8.74997 12.0537 8.74997 15.5C8.74997 18.9462 11.5537 21.75 15 21.75C18.4462 21.75 21.25 18.9462 21.25 15.5C21.25 12.0537 18.4462 9.25 15 9.25ZM15 11.75C17.0675 11.75 18.75 13.4325 18.75 15.5C18.75 17.5675 17.0675 19.25 15 19.25C12.9325 19.25 11.25 17.5675 11.25 15.5C11.25 13.4325 12.9325 11.75 15 11.75Z" fill="white"/>
</svg>
