<svg width="30" height="31" viewBox="0 0 30 31" fill="none" xmlns="http://www.w3.org/2000/svg">
<path d="M6.25003 4.25C4.86878 4.25 3.75003 5.36875 3.75003 6.75V24.25C3.75003 25.6312 4.86878 26.75 6.25003 26.75H23.75C25.1313 26.75 26.25 25.6312 26.25 24.25V6.75C26.25 5.36875 25.1313 4.25 23.75 4.25H6.25003ZM6.25003 6.75H23.75V24.25H6.25003V6.75ZM9.72415 8.39551C8.6529 8.39551 8.01028 9.03947 8.01028 9.89697C8.01028 10.7545 8.65298 11.396 9.61673 11.396C10.688 11.396 11.3306 10.7545 11.3306 9.89697C11.3306 9.03947 10.6879 8.39551 9.72415 8.39551ZM8.09573 13V21.75H11.25V13H8.09573ZM13.8526 13V21.75H17.0069V16.9673C17.0069 15.5435 18.0227 15.3389 18.3277 15.3389C18.6327 15.3389 19.4483 15.6448 19.4483 16.9673V21.75H22.5V16.9673C22.5 14.221 21.2797 13 19.7534 13C18.2272 13 17.4131 13.5082 17.0069 14.2207V13H13.8526Z" fill="white"/>
</svg>
