<svg width="30" height="31" viewBox="0 0 30 31" fill="none" xmlns="http://www.w3.org/2000/svg">
<path d="M6.25 4.25024C4.87125 4.25024 3.75 5.37149 3.75 6.75024V24.2502C3.75 25.629 4.87125 26.7502 6.25 26.7502H23.75C25.1287 26.7502 26.25 25.629 26.25 24.2502V6.75024C26.25 5.37149 25.1287 4.25024 23.75 4.25024H6.25ZM6.25 6.75024H23.75L23.7524 24.2502H6.25V6.75024ZM18.208 9.39185C16.493 9.39185 15.1001 10.786 15.1001 12.4998C15.1001 12.821 15.2075 13.0355 15.2075 13.2493C12.6363 13.143 10.3867 11.8576 8.88672 10.0364C8.56547 10.4651 8.45703 10.9991 8.45703 11.5354C8.45703 12.6066 8.99357 13.4661 9.85107 14.2161C9.31607 14.1086 8.88578 14.0001 8.45703 13.7864C8.45703 15.2864 9.52791 16.4656 10.9204 16.7869C10.5992 16.8944 10.3847 16.8943 10.0635 16.8943C9.95598 16.8943 9.74012 16.7869 9.52637 16.7869C9.95512 17.9656 11.0269 18.928 12.4194 18.928C11.3482 19.678 9.95451 20.2146 8.56201 20.2146H7.8125C9.205 21.0708 10.8131 21.6086 12.5269 21.6086C18.2056 21.6086 21.3135 16.8933 21.3135 12.822V12.3923C21.8497 11.9636 22.3837 11.4284 22.8149 10.7834C22.1724 11.1059 21.6362 11.2131 20.9937 11.3206C21.6362 10.8931 22.1715 10.3567 22.3853 9.60669C21.849 9.92794 21.2065 10.2487 20.4565 10.3562C19.9203 9.7137 19.0655 9.39185 18.208 9.39185Z" fill="white"/>
</svg>
