<svg width="24" height="23" viewBox="0 0 24 23" fill="none" xmlns="http://www.w3.org/2000/svg">
<path d="M3.25 0.25C1.87125 0.25 0.75 1.37125 0.75 2.75V20.25C0.75 21.6287 1.87125 22.75 3.25 22.75H20.75C22.1287 22.75 23.25 21.6287 23.25 20.25V2.75C23.25 1.37125 22.1287 0.25 20.75 0.25H3.25ZM3.25 2.75H20.75L20.7524 20.25H3.25V2.75ZM15.208 5.3916C13.493 5.3916 12.1001 6.78576 12.1001 8.49951C12.1001 8.82076 12.2075 9.03527 12.2075 9.24902C9.63627 9.14277 7.38672 7.85738 5.88672 6.03613C5.56547 6.46488 5.45703 6.99891 5.45703 7.53516C5.45703 8.60641 5.99357 9.46582 6.85107 10.2158C6.31607 10.1083 5.88578 9.99988 5.45703 9.78613C5.45703 11.2861 6.52791 12.4654 7.92041 12.7866C7.59916 12.8941 7.38473 12.894 7.06348 12.894C6.95598 12.894 6.74012 12.7866 6.52637 12.7866C6.95512 13.9654 8.02693 14.9277 9.41943 14.9277C8.34818 15.6777 6.95451 16.2144 5.56201 16.2144H4.8125C6.205 17.0706 7.81311 17.6084 9.52685 17.6084C15.2056 17.6084 18.3135 12.893 18.3135 8.82178V8.39209C18.8497 7.96334 19.3837 7.4282 19.8149 6.7832C19.1724 7.1057 18.6362 7.21281 17.9937 7.32031C18.6362 6.89281 19.1715 6.35644 19.3853 5.60644C18.849 5.92769 18.2065 6.24846 17.4565 6.35596C16.9203 5.71346 16.0655 5.3916 15.208 5.3916Z" fill="white"/>
</svg>
