<svg width="30" height="31" viewBox="0 0 30 31" fill="none" xmlns="http://www.w3.org/2000/svg">
<path d="M27.7051 9.09861C27.5558 8.54365 27.2632 8.03765 26.8569 7.63127C26.4505 7.22488 25.9445 6.93236 25.3895 6.78298C23.3458 6.22986 15.1333 6.22986 15.1333 6.22986C15.1333 6.22986 6.92077 6.22986 4.87702 6.78298C4.32206 6.93236 3.81607 7.22488 3.40968 7.63127C3.0033 8.03765 2.71078 8.54365 2.5614 9.09861C2.17979 11.1829 1.9946 13.2984 2.00827 15.4174C1.9946 17.5363 2.17979 19.6518 2.5614 21.7361C2.71078 22.2911 3.0033 22.7971 3.40968 23.2034C3.81607 23.6098 4.32206 23.9024 4.87702 24.0517C6.92077 24.6049 15.1333 24.6049 15.1333 24.6049C15.1333 24.6049 23.3458 24.6049 25.3895 24.0517C25.9445 23.9024 26.4505 23.6098 26.8569 23.2034C27.2632 22.7971 27.5558 22.2911 27.7051 21.7361C28.0868 19.6518 28.2719 17.5363 28.2583 15.4174C28.2719 13.2984 28.0868 11.1829 27.7051 9.09861ZM12.5083 19.3549V11.4799L19.3239 15.4174L12.5083 19.3549Z" fill="white"/>
</svg>
